<?xml version="1.0" encoding="utf-8"?>
<!-- Generator: Adobe Illustrator 25.2.3, SVG Export Plug-In . SVG Version: 6.00 Build 0)  -->
<svg version="1.1" id="Layer_1" xmlns="http://www.w3.org/2000/svg" xmlns:xlink="http://www.w3.org/1999/xlink" x="0px" y="0px"
	 viewBox="0 0 128 127.7" style="enable-background:new 0 0 128 127.7;" xml:space="preserve">
<style type="text/css">
	.st0{fill:#E01E5A;}
	.st1{fill:#36C5F0;}
	.st2{fill:#2EB67D;}
	.st3{fill:#ECB22E;}
</style>
<g>
	<path class="st0" d="M27.7,80.5c0,7.3-5.9,13.2-13.2,13.2S1.3,87.8,1.3,80.5s5.9-13.2,13.2-13.2h13.2V80.5z M34.3,80.5
		c0-7.3,5.9-13.2,13.2-13.2s13.2,5.9,13.2,13.2v33c0,7.3-5.9,13.2-13.2,13.2s-13.2-5.9-13.2-13.2V80.5z"/>
	<path class="st1" d="M47.5,27.5c-7.3,0-13.2-5.9-13.2-13.2S40.2,1.1,47.5,1.1S60.7,7,60.7,14.3v13.2H47.5z M47.5,34.2
		c7.3,0,13.2,5.9,13.2,13.2s-5.9,13.2-13.2,13.2H14.4c-7.3,0-13.2-5.9-13.2-13.2s5.9-13.2,13.2-13.2H47.5z"/>
	<path class="st2" d="M100.4,47.4c0-7.3,5.9-13.2,13.2-13.2c7.3,0,13.2,5.9,13.2,13.2s-5.9,13.2-13.2,13.2h-13.2V47.4z M93.8,47.4
		c0,7.3-5.9,13.2-13.2,13.2c-7.3,0-13.2-5.9-13.2-13.2V14.3c0-7.3,5.9-13.2,13.2-13.2c7.3,0,13.2,5.9,13.2,13.2
		C93.8,14.3,93.8,47.4,93.8,47.4z"/>
	<path class="st3" d="M80.6,100.3c7.3,0,13.2,5.9,13.2,13.2c0,7.3-5.9,13.2-13.2,13.2c-7.3,0-13.2-5.9-13.2-13.2v-13.2H80.6z
		 M80.6,93.7c-7.3,0-13.2-5.9-13.2-13.2c0-7.3,5.9-13.2,13.2-13.2h33.1c7.3,0,13.2,5.9,13.2,13.2c0,7.3-5.9,13.2-13.2,13.2H80.6z"/>
</g>
</svg>
