<?xml version="1.0" encoding="utf-8"?>
<!-- Generator: Adobe Illustrator 24.0.2, SVG Export Plug-In . SVG Version: 6.00 Build 0)  -->
<svg version="1.1" id="Layer_1" xmlns="http://www.w3.org/2000/svg" xmlns:xlink="http://www.w3.org/1999/xlink" x="0px" y="0px"
	 viewBox="0 0 383 384" style="enable-background:new 0 0 383 384;" xml:space="preserve">
<g id="lvJcn8.tif">
	<g>
		<path d="M180.6,0c7.3,0,14.6,0,21.9,0c1.1,0.3,2.2,0.8,3.3,0.9c26.5,1.7,51.6,8.7,74.9,21.5c53,29,86.1,73.2,98.5,132.7
			c1.8,8.9,2.7,18,3.9,27c0,6.7,0,13.3,0,20c-1,8.1-1.6,16.2-3.2,24.1c-13,64-48.8,110.7-107.2,139.6c-11.9,5.9-24.4,10.2-37.4,12.9
			c4.7-11.9,12.9-20.2,23.9-26.1c4.8-2.6,9.1-6.2,13.6-9.3c10.1-6.9,19.2-14.8,26-25.2c1.8-2.7,4-5.6,6.7-7.3
			c8.6-5.5,14-13.6,19.3-21.9c7.5-11.6,14.5-23.4,17.9-37c1.3-5-0.5-8.5-5-10.6c-2.2-1-4.7-1.9-7.1-2.2c-6.4-0.8-12.9-1.4-19.3-1.8
			c-4.6-0.3-7-2.4-7.3-7.1c-0.5-7.2-4.7-10.4-11.3-12.5c-9.7-3.1-19-7.6-28.5-11.3c-4.7-1.8-9.6-3.6-14.6-4.3
			c-8.1-1.1-14.3,3.8-20,8.6c-7.3,6-15.1,7.5-24.1,5.3c-7.5-1.8-12.1-6.2-12.8-12.7c-1.2-11.5-4.4-15.2-15.5-18
			c0.7-2.7,1.7-5.3,2-8.1c0.2-1.8-0.2-4.4-1.3-5.3c-1-0.8-3.8-0.3-5.3,0.5c-3.8,2-7.2,4.7-11,6.8c-4,2.2-7.9,2.2-11.4-1.3
			c-7.9-7.9-7.2-20.7,1.4-27.8c12.9-10.6,30.8-9.7,42.7,2c1.5,1.4,3.4,2.3,5.1,3.5c0.5-0.4,0.9-0.8,1.4-1.1
			c-0.5-2.2-0.6-4.5-1.6-6.5c-3.9-7.6-2.3-13.8,4.5-18.7c4.9-3.6,6.4-8.1,6-14.3c-0.6-9.7,2.3-13.4,11.4-16.7
			c-1-6.3,2.1-8.6,8.7-8.5c2.8,0.1,5.7-3.3,8.5-5.1c-1.3-1.5-2.4-3.5-4.1-4.5c-4.6-2.7-5.1-4.8-1-8.2c2.8-2.3,5.8-4.1,9.1-6.4
			c-4.4-3.4-8.2-6.6-12.2-9.5c-2.8-2.1-5.7-4.1-8.7-5.8c-2-1.1-4.6-2.5-6.4-2c-4.4,1.3-7.7-0.1-11.2-2.2c-1.7-1-3.7-1.6-5.6-2
			c-3.3-0.6-5.2,0.4-4.6,4.2c0.5,3.6,1.3,7.2,1.4,10.9c0.1,2.1-0.4,5.3-1.7,6.2c-1.4,0.8-4.4-0.3-6.3-1.3c-3.5-1.9-6.6-4.4-10-6.5
			c-12.5-7.6-12.5-7.6,0.2-14.8c1.3-0.8,2.8-1.9,3.4-3.2c1-2,1.4-4.3,2.1-6.7c-0.2-0.1-0.6-0.4-1.1-0.5c-0.6-0.1-1.3-0.2-2-0.1
			c-6.8,1.2-12.3-1.4-17.4-5.6c-2.2-1.9-4.9-3.8-7.7-4.3c-3.7-0.7-8-2-11.4,1.6c1,1.8,1.8,3.2,2.6,4.5c-0.2,0.4-0.5,0.8-0.7,1.2
			c-5.9-2.1-11.8-4-17.5-6.3c-6.9-2.7-13.6-3.2-20,0.9c-9.6,6.3-19,12.8-28.4,19.3c-2.1,1.5-3.8,3.7-5.6,5.6
			c5.3-1.1,9.7-3.4,14.2-5.1c9.4-3.5,12.1-1.5,12.1,8.5c0,6.8,0,13.5,0,19.4c-1.2,1.6-2.5,2.7-3,4.2c-1.5,4.2-2.1,8.8-4,12.7
			c-6.8,13.5-6.7,26.6,0.5,40c2.8,5.1,4.8,11.1,5.3,16.9c0.7,7,5.3,10.7,8.4,15.8c0.4-0.2,0.8-0.4,1.3-0.5
			c-1.9-6.5-3.8-13.1-5.4-18.7c4.1,6.1,8.8,12.7,13,19.5c1.7,2.7,3.3,5.9,3.6,9.1c0.7,6.2,3.5,11.2,8.9,13.5c14,6,28,12.1,42.5,16.7
			c5,1.6,8.1,3.6,10.5,7.8c4.1,7.2,11.4,9.7,18.4,12.8c1,0.4,2.7-0.7,4.1-0.9c1.9-0.3,4.1-1.1,5.7-0.4c7.2,3.2,8.6,9.5,4.2,16.3
			c-2.1,3.2-4.3,6.4-5.9,9.8c-4.6,9.6-5.4,20.5,3.9,29.2c2.9,2.6,4.4,6.6,7,9.6c4.2,4.8,8.3,10,13.3,13.7c8.3,6,11.4,10.9,8.5,20.6
			c-3,9.8-7.2,19.2-11.3,28.6c-4.6,10.3-5.4,20.6-1.5,31.7c-1.2,0.3-2.4,0.7-3.7,0.8c-7.2,1-14.4,2-21.5,3c-7,0-14,0-20.9,0
			c-1.4-0.3-2.9-0.7-4.3-0.9c-11.3-1.8-22.8-2.6-33.7-5.5C36.3,349.8-25.8,236.2,10.3,131.4C34.9,60,85.9,17.3,160.1,2.9
			C166.8,1.6,173.7,1,180.6,0z M202,4.5c-2.7,2.1-6,3.9-8.3,6.5c-2.8,3.2-1.1,6.8,3.2,6.9c9.8,0.3,17.5,4.8,25,10.7
			c6,4.7,12.5,8.6,19.1,12.4c1.9,1.1,4.8,0.6,7.2,0.9c-0.5-2.3-0.7-4.6-1.5-6.8c-1.1-3.3-3.3-6.3-3.7-9.6c-1-7-5-11.5-11.1-13.4
			C222.5,9,212.8,7.1,202,4.5z M176.7,24.2c-0.2,0.8-0.3,1.6-0.5,2.4c1.6,0.8,3.2,1.9,5,2.4c2.7,0.7,5.6,0.8,8.3,1.5
			c7.1,1.8,7.8,3.5,4.2,9.8c-0.1,0.2,0.1,0.6,0.3,1.6c4.1,0.6,8.5,1.6,12.9,1.7c1.7,0,4.6-1.5,5-2.9c0.5-1.8-0.4-5.1-1.8-6
			c-5.2-3.4-10.6-7.1-16.5-8.9C188.3,24.2,182.4,24.7,176.7,24.2z M240.3,178.5c0-0.6,0.1-1.1,0.1-1.7c-2.9-0.3-6.2-1.5-8.6-0.6
			c-4.5,1.7-7.9,0.5-11.6-1.7c-3.8-2.2-7.8-4.4-12-5.9c-3.5-1.3-7.3-2.1-11.1-2.4c-2.3-0.1-5.6,0-5.5,2.6c9.7,4,18.9,7.6,27.8,11.6
			C227,183.8,233.7,182.5,240.3,178.5z M173.6,18.8c5.6,2,13.5,0.2,16.5-4c1-1.5,1.8-4,1.2-5.4c-0.5-1.1-3.3-1.5-5.1-1.5
			C178.9,7.7,176.2,13.1,173.6,18.8z"/>
	</g>
</g>
</svg>
