<?xml version="1.0" encoding="utf-8"?>
<!-- Generator: Adobe Illustrator 23.0.2, SVG Export Plug-In . SVG Version: 6.00 Build 0)  -->
<svg version="1.1" id="Layer_1" xmlns="http://www.w3.org/2000/svg" xmlns:xlink="http://www.w3.org/1999/xlink" x="0px" y="0px"
	 viewBox="0 0 797.3 283" style="enable-background:new 0 0 797.3 283;" xml:space="preserve">
<style type="text/css">
	.st0{fill:#478CC3;}
</style>
<title>Habitat Logo with Text All Blue</title>
<path class="st0" d="M123.3,24.1c2.2,0,4.3,0.8,6,2.2l89.6,74.5c1.9,1.2,3.1,3.3,3.1,5.6v139.3c0,3.7-3,6.6-6.6,6.6H31.2
	c-3.7,0-6.6-3-6.6-6.6V106.5c0-2.3,1.2-4.4,3.1-5.6l89.6-74.5C119,24.9,121.1,24.2,123.3,24.1 M123.3,9.1c-5.7,0-11.2,2-15.6,5.6
	l-89,74c-5.7,4-9.1,10.6-9.1,17.6v139.4c0,11.9,9.7,21.6,21.6,21.6h184.2c11.9,0,21.6-9.7,21.6-21.6V106.5c0-7-3.4-13.6-9.1-17.6
	l-89-74C134.5,11.2,129,9.2,123.3,9.1L123.3,9.1z"/>
<path class="st0" d="M207.5,220.5c-5.4,0-9.8,4.4-9.8,9.8c0,5.4,4.4,9.8,9.8,9.8c2.8,0,5.5-1.2,7.3-3.3h7.2v-13h-7.2
	C213,221.7,210.3,220.5,207.5,220.5z M207.5,233.7c-1.9,0-3.4-1.5-3.4-3.4s1.5-3.4,3.4-3.4s3.4,1.5,3.4,3.4
	C211,232.1,209.4,233.7,207.5,233.7L207.5,233.7z"/>
<path class="st0" d="M103.6,220.8c-2.8,0-5.4,1.2-7.3,3.3H75.7v-21.8c0-3.6-2.9-6.5-6.5-6.5l0,0H24.6v13h38.1v21.8
	c0,3.6,2.9,6.5,6.5,6.5h27.1c3.6,4,9.8,4.4,13.8,0.8c4-3.6,4.4-9.8,0.8-13.8C109.1,222,106.4,220.8,103.6,220.8z M103.6,234
	c-1.9,0-3.4-1.5-3.4-3.4s1.5-3.4,3.4-3.4s3.4,1.5,3.4,3.4C107.1,232.4,105.5,234,103.6,234L103.6,234z"/>
<path class="st0" d="M103.6,74.6c5.4,0,9.8-4.4,9.8-9.8c0-2.8-1.2-5.5-3.3-7.3V32.3l-13,10.8v14.5c-4,3.6-4.4,9.8-0.8,13.8
	C98.2,73.5,100.9,74.6,103.6,74.6z M103.6,61.4c1.9,0,3.4,1.5,3.4,3.4s-1.5,3.4-3.4,3.4s-3.4-1.5-3.4-3.4l0,0
	C100.2,63,101.8,61.5,103.6,61.4z"/>
<path class="st0" d="M171.6,202.2V224h-21.7c-3.6-4-9.8-4.4-13.8-0.8c-4,3.6-4.4,9.8-0.8,13.8s9.8,4.4,13.8,0.8
	c0.3-0.3,0.6-0.5,0.8-0.8h28.2c3.6,0,6.5-2.9,6.5-6.5v-21.8H222v-13h-43.9C174.5,195.7,171.6,198.6,171.6,202.2L171.6,202.2z
	 M142.6,234c-1.9,0-3.4-1.5-3.4-3.4s1.5-3.4,3.4-3.4s3.4,1.5,3.4,3.4l0,0C146,232.4,144.5,234,142.6,234L142.6,234z"/>
<path class="st0" d="M39.2,220.5c-2.8,0-5.4,1.2-7.3,3.3h-7.3v13h7.3c3.6,4,9.8,4.4,13.8,0.8s4.4-9.8,0.8-13.8
	C44.6,221.7,41.9,220.5,39.2,220.5z M39.2,233.7c-1.9,0-3.4-1.5-3.4-3.4s1.5-3.4,3.4-3.4s3.4,1.5,3.4,3.4l0,0
	C42.6,232.1,41,233.7,39.2,233.7z"/>
<path class="st0" d="M62.5,100.2h7.9v14.3c-4,3.6-4.4,9.8-0.8,13.8s9.8,4.4,13.8,0.8c4-3.6,4.4-9.8,0.8-13.8
	c-0.3-0.3-0.5-0.6-0.8-0.8V93.7c0-3.6-2.9-6.5-6.5-6.5l0,0H69V66.5L56,77.3v16.5C56,97.3,58.9,100.2,62.5,100.2L62.5,100.2z
	 M77,118.4c1.9,0,3.4,1.5,3.4,3.4s-1.5,3.4-3.4,3.4s-3.4-1.5-3.4-3.4l0,0C73.6,119.9,75.1,118.4,77,118.4z"/>
<path class="st0" d="M170.2,131.6c5.4,0,9.8-4.4,9.8-9.8c0-2.8-1.2-5.5-3.3-7.3v-14.3h8c3.6,0,6.5-2.9,6.5-6.5l0,0v-16l-13-10.8
	v20.3h-7.9c-3.6,0-6.5,2.9-6.5,6.5l0,0v20.8c-4,3.6-4.4,9.8-0.8,13.8C164.8,130.4,167.4,131.6,170.2,131.6L170.2,131.6z
	 M170.2,118.4c1.9,0,3.4,1.5,3.4,3.4s-1.5,3.4-3.4,3.4s-3.4-1.5-3.4-3.4S168.3,118.4,170.2,118.4L170.2,118.4z"/>
<path class="st0" d="M76.2,183.6c5.4,0,9.8-4.4,9.8-9.8c0-5.4-4.4-9.8-9.8-9.8c-2.8,0-5.5,1.2-7.3,3.3H24.6v13H69
	C70.8,182.4,73.5,183.6,76.2,183.6z M76.2,170.4c1.9,0,3.4,1.5,3.4,3.4s-1.5,3.4-3.4,3.4s-3.4-1.5-3.4-3.4l0,0
	C72.8,171.9,74.4,170.4,76.2,170.4z"/>
<path class="st0" d="M197,121.5c-3.6,0-6.5,2.9-6.5,6.4l-0.1,13.6h-41.3v-37.8c4.4-3.6,5-10.1,1.5-14.5c-3.6-4.4-10.1-5-14.5-1.5
	c-4.4,3.6-5,10.1-1.5,14.5c0.4,0.5,0.9,1,1.5,1.5v37.8h-26v-37.8c4.4-3.6,5-10.1,1.4-14.4c-3.6-4.4-10.1-5-14.4-1.4
	c-4.4,3.6-5,10.1-1.4,14.4c0.4,0.5,0.9,1,1.4,1.4v37.8H55.8L55.7,128c0-3.6-2.9-6.4-6.5-6.4H24.6v13h18.2l0.1,13.6
	c0,3.6,2.9,6.5,6.5,6.4h47.7v34c-4.4,3.6-5,10.1-1.5,14.5c3.6,4.4,10.1,5,14.5,1.5c4.4-3.6,5-10.1,1.5-14.5c-0.4-0.5-0.9-1-1.5-1.5
	v-34h26v34c-4.4,3.6-5,10.1-1.4,14.4c3.6,4.4,10.1,5,14.4,1.4c4.4-3.6,5-10.1,1.4-14.4c-0.4-0.5-0.9-1-1.4-1.4v-34h47.7
	c3.6,0,6.5-2.9,6.5-6.4l0.1-13.6H222v-13h-25V121.5z M103.6,200.2c-1.9,0-3.4-1.5-3.4-3.4s1.5-3.4,3.4-3.4s3.4,1.5,3.4,3.4
	C107.1,198.7,105.5,200.2,103.6,200.2L103.6,200.2z M103.6,99.2c-1.9,0-3.4-1.5-3.4-3.4s1.5-3.4,3.4-3.4s3.4,1.5,3.4,3.4
	S105.5,99.2,103.6,99.2L103.6,99.2z M142.6,200.2c-1.9,0-3.4-1.5-3.4-3.4s1.5-3.4,3.4-3.4s3.4,1.5,3.4,3.4l0,0
	C146.1,198.7,144.5,200.2,142.6,200.2L142.6,200.2L142.6,200.2z M142.6,99.2c-1.9,0-3.4-1.5-3.4-3.4s1.5-3.4,3.4-3.4
	s3.4,1.5,3.4,3.4l0,0C146.1,97.7,144.5,99.2,142.6,99.2L142.6,99.2L142.6,99.2z"/>
<path class="st0" d="M142.8,74.6c5.4,0,9.8-4.4,9.8-9.8c0-2.8-1.2-5.5-3.3-7.3V42.9l-13-10.8v25.5c-4,3.6-4.4,9.8-0.8,13.8
	C137.3,73.5,140,74.6,142.8,74.6z M142.8,61.4c1.9,0,3.4,1.5,3.4,3.4s-1.5,3.4-3.4,3.4s-3.4-1.5-3.4-3.4S140.9,61.4,142.8,61.4
	L142.8,61.4z"/>
<path class="st0" d="M170.5,164.1c-5.4,0-9.8,4.4-9.8,9.8c0,5.4,4.4,9.8,9.8,9.8c2.8,0,5.5-1.2,7.3-3.3H222v-13h-44.3
	C175.9,165.2,173.2,164.1,170.5,164.1z M170.5,177.2c-1.9,0-3.4-1.5-3.4-3.4s1.5-3.4,3.4-3.4s3.4,1.5,3.4,3.4l0,0
	C173.9,175.7,172.3,177.2,170.5,177.2L170.5,177.2z"/>
<g>
	<path class="st0" d="M388.3,242.8h-25.5v-54.1h-40.5v54.1h-25.6V112.2h25.6v56.2h40.5v-56.2h25.5V242.8z"/>
	<path class="st0" d="M447.8,242.8c-0.8-1.7-1.4-3.5-1.9-5.3c-0.6-1.9-1-3.9-1.3-5.8c-2.2,3.7-5.2,7-8.7,9.5
		c-3.5,2.4-7.7,3.6-12,3.5c-8,0-14.4-2.6-19.2-7.9c-4.8-5.3-7.2-12.3-7.2-21.1c0-9.5,3.1-16.9,9.2-22.2s15.2-7.9,27.3-7.9h9.6v-7.9
		c0.2-3.8-0.7-7.6-2.6-10.9c-1.7-2.5-4.6-4-7.7-3.8c-2.5-0.1-4.9,1-6.4,3c-1.6,2.7-2.4,5.8-2.2,8.9H400l-0.3-0.5
		c-0.4-8.2,3.1-16.2,9.4-21.5c6.5-5.9,15.2-8.9,25.9-8.9c10.1,0,18.3,2.9,24.6,8.8c6.3,5.9,9.5,14.3,9.5,25.2v39.2
		c0,4.5,0.3,8.9,1,13.4c0.7,4.1,1.7,8.2,3,12.2H447.8z M431.2,225.5c2.5,0,5-0.7,7.1-2.1c2.1-1.3,3.9-3.1,5.2-5.3v-17.9h-9.6
		c-3.3-0.3-6.5,1.3-8.4,4c-1.8,3.1-2.8,6.6-2.6,10.2c-0.1,2.8,0.7,5.6,2.2,7.9C426.5,224.4,428.8,225.6,431.2,225.5z"/>
	<path class="st0" d="M556.6,201.7c0,13.1-2.7,23.5-8.1,31.3s-13.3,11.7-23.8,11.7c-4.2,0.1-8.3-1-11.9-3.2
		c-3.6-2.3-6.6-5.4-8.7-9.1l-1.5,10.4h-22.1V103H506v51.1c2.1-3.1,4.8-5.6,8-7.4c3.2-1.8,6.8-2.7,10.5-2.6c10.5,0,18.5,4.1,24,12.2
		c5.5,8.1,8.2,18.9,8.1,32.4V201.7z M531.3,188.5c0-7.6-0.9-13.5-2.8-17.8c-1.9-4.3-5.4-6.4-10.5-6.4c-2.5-0.1-5,0.7-7.1,2.1
		c-2.1,1.5-3.7,3.5-4.8,5.8v45.4c1.1,2.1,2.7,3.8,4.8,5c2.2,1.1,4.7,1.7,7.2,1.6c5.1,0,8.6-1.9,10.5-5.7c1.8-3.8,2.7-9.4,2.7-16.8
		V188.5z"/>
	<path class="st0" d="M591.9,122.4h-25.5V103h25.5V122.4z M591.9,242.8h-25.5v-97.1h25.5V242.8z"/>
	<path class="st0" d="M634.8,121.6v24.1h13.5v18.5h-13.5V213c0,3.9,0.6,6.8,1.7,8.5c1,1.6,2.8,2.6,4.7,2.6c1.3,0,2.6-0.1,4-0.2
		c1.2-0.2,2.4-0.4,3.6-0.8l2,19.4c-2.5,0.8-5.1,1.4-7.7,1.8c-2.8,0.4-5.6,0.5-8.3,0.5c-8.2,0-14.5-2.5-18.8-7.6
		c-4.3-5-6.5-13.1-6.5-24.1v-48.8H598v-18.5h11.5v-24.1L634.8,121.6L634.8,121.6z"/>
	<path class="st0" d="M704.9,242.8c-0.8-1.7-1.4-3.5-1.9-5.3c-0.6-1.9-1-3.9-1.3-5.8c-2.2,3.7-5.2,7-8.8,9.5
		c-3.5,2.4-7.7,3.6-12,3.5c-8,0-14.4-2.6-19.2-7.9c-4.8-5.3-7.2-12.3-7.2-21.1c0-9.5,3.1-16.9,9.2-22.2c6.1-5.3,15.2-7.9,27.3-7.9
		h9.6v-7.9c0.2-3.8-0.7-7.6-2.5-10.9c-1.7-2.5-4.6-4-7.7-3.8c-2.5-0.1-4.9,1-6.4,3c-1.6,2.7-2.4,5.8-2.2,8.9h-24.7l-0.3-0.5
		c-0.4-8.2,3.1-16.2,9.4-21.5c6.5-5.9,15.2-8.9,25.9-8.9c10.1,0,18.3,2.9,24.6,8.8s9.5,14.3,9.5,25.2v39.2c0,4.5,0.3,8.9,1,13.4
		c0.7,4.1,1.7,8.2,3.1,12.2H704.9z M688.3,225.5c2.5,0,5-0.7,7.1-2.1c2.1-1.3,3.9-3.1,5.2-5.3v-17.9H691c-3.3-0.3-6.6,1.3-8.4,4
		c-1.8,3.1-2.7,6.6-2.6,10.2c-0.1,2.8,0.7,5.6,2.2,7.9C683.6,224.4,685.9,225.6,688.3,225.5L688.3,225.5z"/>
	<path class="st0" d="M767.8,121.6v24.1h13.5v18.5h-13.5V213c0,3.9,0.6,6.8,1.7,8.5c1,1.6,2.8,2.6,4.7,2.6c1.3,0,2.6-0.1,4-0.2
		c1.2-0.2,2.4-0.4,3.6-0.8l2,19.4c-2.5,0.8-5.1,1.4-7.7,1.8c-2.8,0.4-5.6,0.5-8.3,0.5c-8.2,0-14.5-2.5-18.8-7.6
		c-4.3-5-6.5-13.1-6.5-24.1v-48.8H731v-18.5h11.5v-24.1L767.8,121.6L767.8,121.6z"/>
</g>
</svg>
