<?xml version="1.0" encoding="utf-8"?>
<!-- Generator: Adobe Illustrator 24.0.2, SVG Export Plug-In . SVG Version: 6.00 Build 0)  -->
<svg version="1.1" id="Layer_1" xmlns="http://www.w3.org/2000/svg" xmlns:xlink="http://www.w3.org/1999/xlink" x="0px" y="0px"
	 viewBox="0 0 598 851.3" style="enable-background:new 0 0 598 851.3;" xml:space="preserve">
<g id="BKUg21.tif">
	<g>
		<path d="M289,0c6.7,0,13.3,0,20,0c17.6,2.3,35.5,3.6,52.8,7.2c116,24,208.3,118.2,230.2,234.9c2.9,15.5,4,31.3,6,46.9
			c0,6,0,12,0,18c-1.2,11.2-2,22.5-3.6,33.7c-7.1,48.9-23.1,95.1-43.6,139.6c-63.2,136.9-151.7,256.8-249.5,370.5
			c-0.7,0.8-4.1,0.6-4.9-0.4c-9.7-11-19.3-22.1-28.7-33.4c-71.8-86.8-137.6-177.8-191.2-277.2C46.4,483.9,20.6,426,7.7,363.3
			C3.9,345.1,2.5,326.4,0,308c0-6.3,0-12.7,0-19c1.1-10.7,1.7-21.5,3.3-32.2C21.8,130.6,115.5,31.5,240.5,6.2C256.5,3,272.8,2,289,0
			z M405.6,295.8c-2.7-59.7-51.9-106-110.1-103.5c-59.2,2.5-105.6,51.9-103.2,109.9c2.5,59.1,52,106,109.1,103.5
			C361.7,403,408.3,353.8,405.6,295.8z"/>
	</g>
</g>
</svg>
