<?xml version="1.0" encoding="utf-8"?>
<!-- Generator: Adobe Illustrator 24.0.2, SVG Export Plug-In . SVG Version: 6.00 Build 0)  -->
<svg version="1.1" id="Layer_1" xmlns:serif="http://www.serif.com/"
	 xmlns="http://www.w3.org/2000/svg" xmlns:xlink="http://www.w3.org/1999/xlink" x="0px" y="0px" viewBox="0 0 1079.5 165"
	 style="enable-background:new 0 0 1079.5 165;" xml:space="preserve">
<style type="text/css">
	.st0{fill-rule:evenodd;clip-rule:evenodd;}
</style>
<path class="st0" d="M898.9,147.5c17.5-12.5,30-31.8,33.2-54.7c0.4-2.7,0.6-5.4,0.7-8.1c-5.1-6.7-10.5-13-16.2-19
	C916,97,909.2,123.6,898.9,147.5z"/>
<path class="st0" d="M871,45.1c0-3-2.4-5.5-5.5-5.5s-5.5,2.4-5.5,5.5s2.4,5.5,5.5,5.5S871,48.2,871,45.1z M862.1,45.1
	c0-1.8,1.5-3.3,3.3-3.3s3.3,1.5,3.3,3.3c0,1.8-1.5,3.3-3.3,3.3S862.1,46.9,862.1,45.1z"/>
<path class="st0" d="M815.8,154.5c7.5,3.7,15.7,6.2,24.4,7.5c18.1,2.6,35.6-1,50.5-9.2c3.5-8,6.5-16.4,9-25.3
	C869.4,144.6,841.9,151.9,815.8,154.5z"/>
<path class="st0" d="M891.5,98.6c0-5.5-4.4-9.9-9.9-9.9c-5.5,0-9.9,4.4-9.9,9.9c0,5.5,4.4,9.9,9.9,9.9
	C887.1,108.6,891.5,104.1,891.5,98.6z M875.3,98.6c0-3.5,2.8-6.3,6.3-6.3c3.5,0,6.3,2.8,6.3,6.3s-2.8,6.3-6.3,6.3
	C878.1,104.9,875.3,102.1,875.3,98.6z"/>
<path class="st0" d="M932.6,74.7c-2-24-14.6-45.7-33.7-59.4c-9.9,1-19.6,2.6-29.1,4.8C897.7,37.3,917.5,55.7,932.6,74.7z"/>
<path class="st0" d="M881.6,122.1l18.5-10.7l3.7,2.2c0.4-1.5,0.7-2.6,1-3.9l0-0.2l-3-1.8V86.9l-20.3-11.7l-18.4,10.6L848,76.6V58.4
	l4.5-2.8l12.9,7.5l15.6-9V38.4l3-1.7c-1.2-1-2.2-1.8-3.4-2.7l-1.6,0.9L865.5,27l-15.6,9v16l-4,2.5L827.8,44l-18,10.4l-5.1-3
	c-0.2,1-0.5,2-0.7,3.1c-0.1,0.3-0.1,0.7-0.2,1l3.8,2.2v21.4l18.1,10.5v3.3l-13.4,7.7v18l13.5,7.8v1.8c1.2,0.8,2.2,1.5,4.1,2.8v-4.5
	l13.5-7.8v-18L830,92.8v-3.3l15.9-9.2l15.4,9.3v20.6L881.6,122.1z M866.7,90.1l14.8-8.6l14.8,8.6v17.1l-14.8,8.6l-14.8-8.6V90.1z
	 M855.3,39.3l10.1-5.8l10.1,5.8v11.7l-10.1,5.8l-10.1-5.8V39.3z M837.8,103.8v11.7l-10.1,5.8l-10.1-5.8v-11.7l10.1-5.8L837.8,103.8z
	 M842.6,76.1l-14.8,8.6l-14.8-8.6V58.9l14.8-8.6l14.8,8.6V76.1z"/>
<path class="st0" d="M817.8,67.5c0,5.5,4.4,9.9,9.9,9.9c5.5,0,9.9-4.4,9.9-9.9s-4.4-9.9-9.9-9.9C822.3,57.6,817.8,62,817.8,67.5z
	 M834,67.5c0,3.5-2.8,6.3-6.3,6.3c-3.5,0-6.3-2.8-6.3-6.3s2.8-6.3,6.3-6.3C831.2,61.2,834,64.1,834,67.5z"/>
<path class="st0" d="M890.9,10.2c-8.5-4.7-17.9-7.9-28-9.3c-15.1-2.1-29.9,0-43,5.6c-4.7,10.2-8.8,20.6-12.4,31.2
	C833.6,25,861,14.8,890.9,10.2z"/>
<path class="st0" d="M822.2,109.7c0,3,2.4,5.5,5.5,5.5c3,0,5.5-2.4,5.5-5.5c0-3-2.4-5.5-5.5-5.5
	C824.7,104.2,822.2,106.6,822.2,109.7z M831.1,109.7c0,1.8-1.5,3.3-3.3,3.3c-1.9,0-3.3-1.5-3.3-3.3c0-1.8,1.5-3.3,3.3-3.3
	C829.6,106.3,831.1,107.8,831.1,109.7z"/>
<path class="st0" d="M810.5,11.2c-20.8,12.1-36,33.3-39.6,58.9c-0.1,1-0.3,2.1-0.4,3.1C777.6,83,785,91.5,792.4,99
	C793.4,70.9,797.5,42.1,810.5,11.2z"/>
<path class="st0" d="M770.2,82.8c0.5,27.4,14.8,52.3,37,66.8c11.4-1,21.8-2.9,31.3-5.3C808.4,125.7,786.7,104.9,770.2,82.8z"/>
<polygon class="st0" points="728.7,71.7 631.7,71.7 631.7,0 616.9,0 616.9,164.6 631.7,164.6 631.7,86.5 728.7,86.5 728.7,164.6 
	743.6,164.6 743.6,0 728.7,0 "/>
<polygon class="st0" points="519.1,0 461.5,0 461.5,15 519.1,15 519.1,164.6 533.9,164.6 533.9,15 591.4,15 591.4,0 533.9,0 "/>
<path class="st0" d="M1038,100c21.4-6.1,37.1-25.7,37.1-49c0-28.1-22.8-51-51-51h-64.9v164.5h14.9V102h47.6l40.3,62.7h17.5L1038,100
	z M974.6,86.6V15.4h49.5c19.6,0,35.6,16,35.6,35.6s-16,35.6-35.6,35.6H974.6z"/>
<path class="st0" d="M348.3,104.9L319,79.8l1.6-1.6l-8.2-12.3l-14.7,1.9l-0.8,13.5l2.2,1l-17.9,35.6h-1.5l-1.2,4.7h-2.2v0
	c0,0,0,0,0,0c-0.7,0-1.3,3.9-1.3,8.8c0,2.9,0.2,5.4,0.5,7h-1.7v-22.9h-13.2V13h-3.8V8.9l8.3,1.7c1.5,0.3,3-0.7,3.3-2.2l0.4-1.7
	c0.3-1.5-0.7-3-2.2-3.3l-16.1-3.4c-1.5-0.3-3,0.7-3.3,2.2l-0.4,1.7c-0.3,1.5,0.7,3,2.2,3.3l0.9,0.2V13h-3.8v102.5h-6.3v22.9h-1.2v0
	c0,0,0,0,0,0c-2.7,0-4.8,5.9-4.8,13.3s2.2,13.2,4.8,13.2c0,0,0,0,0,0v0h73.7c0,0,0,0,0,0c2.7,0,4.8-5.9,4.8-13.2
	c0-7.3-2.2-13.2-4.8-13.3v0H297c0.3-1.6,0.5-4.2,0.5-7c0-4.8-0.6-8.8-1.3-8.8v0h-2.2l-1.2-4.7h-1.3l16-31.8l3.5,1.6l1.6-1.6
	l29.4,25.3l-2.3,2.4l3.6,2.8l-7.4,10l-1.3-1l-10,13.7l-1.3-0.9l0-0.1c0.1-0.2,0.1-0.4-0.1-0.5l-0.6-0.4c-0.2-0.1-0.4-0.1-0.5,0.1
	l-2.8,3.8c-0.1,0.2-0.1,0.4,0.1,0.5l0.6,0.4c0.2,0.1,0.4,0.1,0.5-0.1l0-0.1l1.4,1.1l-2.4,3.3l-1.2,5.1l1.3,0.9l3.4-3.5l2.4-3.3
	l4.4,3.2l-2.4,3.3l-2.4,4.3l1.3,0.9l4.5-2.7l2.4-3.3l1.4,1l0,0.1c-0.1,0.2-0.1,0.4,0.1,0.5l0.6,0.4c0.2,0.1,0.4,0.1,0.5-0.1l2.8-3.8
	c0.1-0.2,0.1-0.4-0.1-0.5l-0.6-0.4c-0.2-0.1-0.4-0.1-0.5,0.1l0,0.1l-0.9-0.7l10-13.7l-1.1-0.8l7.2-9.7l3.1,2.4l7.6-7.9l-13-15.4
	L348.3,104.9z M250.7,18.6h5.2v96.9h-5.2V18.6z"/>
<path class="st0" d="M403.6,77.1l-25,43.2l25,43.2h49.9l24.9-43.2l-24.9-43.2H403.6z M444,148.3h-31.1l-15.5-26.9l15.5-26.9H444
	l15.5,26.9L444,148.3z"/>
<path class="st0" d="M143.7,77.1l-25,43.2l25,43.2h49.9l24.9-43.2l-24.9-43.2H143.7z M184,148.3H153l-15.5-26.9L153,94.5H184
	l15.5,26.9L184,148.3z"/>
<path class="st0" d="M94,102.6L94,102.6L94,102.6l28.3-48.9l0,0l0,0L93.1,0L93,0.1V0.1H15.6v0H0V164h15.6v-61.4h45.1L99.2,164h19
	l-36.7-61.4H94z M15.6,16.1h68.1l19.9,36.6L84,86.7H15.6V16.1z"/>
</svg>
