<?xml version="1.0" encoding="utf-8"?>
<!-- Generator: Adobe Illustrator 24.0.2, SVG Export Plug-In . SVG Version: 6.00 Build 0)  -->
<svg version="1.1" id="Layer_1" xmlns="http://www.w3.org/2000/svg" xmlns:xlink="http://www.w3.org/1999/xlink" x="0px" y="0px"
	 viewBox="0 0 383 384" style="enable-background:new 0 0 383 384;" xml:space="preserve">
<g>
	<path d="M362.1,0.3c-4.9,3.9-9.8,7.8-14.7,11.6c-0.3,0.2-0.6,0.5-0.9,0.7c-3.2,1.6-3.9,4.3-3.8,7.8c0.3,7,0.1,14.1,0.1,21.2
		c0,1.1,0.2,1.6,1.5,1.8c3.4,0.6,5,2.6,5,6.1c0,1.7,0,3.4,0,5c0,42.4,0,84.9,0,127.3c0,5.2-3.3,9.7-8.4,10.5
		c-3.8,0.6-7.8,1.1-11.4-1.1c-3.5-2.1-5.4-5.2-5.4-9.3c0-44,0-87.9,0-131.9c0-4.2,1.3-5.8,5.4-6.8c0.4-0.1,1-0.7,1-1.1
		c0.1-5.3,0-10.7,0-16c0-0.1-0.1-0.2-0.2-0.4c-0.6,0.4-1.1,0.7-1.6,1.2c-18,14.8-36.1,29.6-54.1,44.4c-0.9,0.7-1.3,1.2-0.5,2.4
		c4.7,7.3,7.2,15.4,8,24c0.5,5.6,0.8,11.2,0.5,16.8c-0.6,11.5-4,22.2-10.1,31.9c-2.3,3.6-4.8,7.1-7.7,10.1
		c-6,6.1-12.6,11.8-18.7,17.9c-3.5,3.5-6.9,7.2-9.7,11.3c-6.1,9-5.2,18,1.8,26.4c5.6,6.7,12.4,12.1,19.3,17.4
		c7.7,5.8,15.5,11.7,22,18.9c9.7,10.7,16.2,23.2,18.1,37.7c3.2,24.4-4,45.3-21,63c-8.6,9-19.1,15.1-30.3,20.3
		c-11.5,5.3-23.4,9.1-35.8,11.4c-6.3,1.1-12.7,2-19.1,2.5c-6.8,0.5-13.6,0.6-20.4,0.3c-21.5-1.1-41.9-6.2-60.5-17.6
		c-12.5-7.6-21.5-18.1-25.5-32.3c-5.2-18.5-1.8-35.7,9.5-51.3c9.6-13.1,22.3-22.2,37.2-28.2c11-4.4,22.3-7.4,33.9-9.4
		c6.4-1.1,12.8-2.1,19.2-2.9c5.8-0.7,11.7-1.1,17.5-1.6c0.4,0,0.8-0.1,1.6-0.2c-0.6-0.8-1-1.5-1.4-2.1c-4.3-5.6-7.9-11.6-10.1-18.3
		c-3-9.1-2.2-17.9,1.3-26.7c0.4-0.9,0.7-1.8,1.1-2.9c-1.5,0.1-2.7,0.3-3.9,0.3c-5.6,0.2-11.1,0.8-16.7,0.5c-20-1.3-37-9.1-50.6-24
		c-9.4-10.2-15.1-22.1-17.2-35.8c-0.8-5.5-0.9-11.1-0.8-16.7c0-0.6,0-1.2,0-2c-28.2,0-56.4,0-84.5,0c0-0.1-0.1-0.2-0.1-0.4
		c1.6-1.4,3.1-2.8,4.7-4.1c14.1-12.3,28.3-24.6,42.4-36.9C82.7,58.2,97.3,45.5,112,32.8c12.1-10.5,24.3-21.1,36.4-31.7
		c0.2-0.2,0.4-0.5,0.6-0.8C220,0.3,291.1,0.3,362.1,0.3z M122.1,308c0.1,1.9,0.2,4.1,0.4,6.3c0.1,0.8,0.2,1.7,0.4,2.5
		c2.8,15.1,11.2,26.3,24.3,34c14.5,8.5,30.4,12.6,47.1,13.8c7.5,0.5,14.9,0.2,22.4-0.8c10.4-1.4,20.1-4.5,29.3-9.6
		c8.1-4.5,14.6-10.5,18.4-19.2c3.6-8,4.7-16.4,3.7-25.1c-0.7-6.4-2.5-12.6-5.9-18.1c-4.2-6.9-9.4-13.1-15.7-18.2
		c-7.7-6.2-15.8-11.9-23.5-18c-3-2.3-6.1-3.2-9.7-3.1c-4.6,0-9.2-0.1-13.7,0.3c-6.8,0.6-13.5,1.3-20.2,2.4
		c-11.1,1.9-21.9,5.2-31.8,10.8C131.4,275,122.4,288.7,122.1,308z M144.4,96c0.4,4.7,0.7,9.4,1.2,14.1c0.3,2.8,0.9,5.5,1.4,8.3
		c3.5,17.3,10.6,32.7,22.9,45.6c4.9,5.1,10.5,9.3,17.2,11.8c7.7,2.9,15.6,3.1,23.6,1.7c8.3-1.5,15.3-5.3,20.9-11.6
		c7.8-8.9,11.3-19.5,11.9-31.1c0.4-8.7-0.6-17.4-2.3-26c-3.3-16.7-9.8-31.9-20.8-45c-8-9.4-17.3-16.4-30-17.5
		c-7.4-0.7-14.6,0.3-21.5,3.4c-8.5,3.8-14,10.6-18.1,18.6C146.3,76.9,144.6,86.3,144.4,96z"/>
</g>
</svg>
