<?xml version="1.0" encoding="utf-8"?>
<!-- Generator: Adobe Illustrator 24.0.2, SVG Export Plug-In . SVG Version: 6.00 Build 0)  -->
<svg version="1.1" id="Layer_1" xmlns="http://www.w3.org/2000/svg" xmlns:xlink="http://www.w3.org/1999/xlink" x="0px" y="0px"
	 viewBox="0 0 524.1 384.1" style="enable-background:new 0 0 524.1 384.1;" xml:space="preserve">
<g>
	<path d="M183,245.8c0.6,19,11.3,26,24.9,35.2c3.6-57.6-1.3-112.8-17.3-166.8c-5.1-17.3-11.4-34.3-17.5-51.4
		c-2-5.7-0.6-8.3,4.8-11.6c7-4.3,12.5-11,19-16.2c3.2-2.6,7.3-5.9,11-6c47.5-0.7,95.1-1,142.6-0.8c4.8,0,10,3.5,14.3,6.4
		c9.6,6.5,18.9,13.3,27.9,20.6c4.6,3.7,10.3,8.1,12,13.3c6.5,19.9,11.5,40.3,17.1,60.4c0.7,2.6,1.9,5.2,2.9,7.8
		c1.4-0.4,2.7-0.9,4.1-1.3C421.2,89.3,413.6,43.3,394.2,0c-1.4,0-2.8,0-4.3,0C319.6,0,249.3,0,179,0c-27.7,0-55.4,0-83.1,0
		c-1.4,0-2.8,0-4.3,0c0.9,1.9,1.6,4,2.9,5.5C152.1,75.3,180,156.2,183,245.8z"/>
	<path d="M167.5,249.1c-4.8-77.4-35.4-145.4-75.6-210c-1.3-2-4.2-4.2-6.4-4.3c-14.4-0.4-28.8-0.2-45.8-0.2
		C98.1,99.9,142,170.1,166.1,254.5C167.1,250.8,167.5,250,167.5,249.1z"/>
	<path d="M140.2,224.9c-16.5-51.7-48.9-93.3-84.4-132.9c-1.5-1.7-4.2-3.2-6.3-3.2C33.8,89.4,18,90.3-0.1,91.1
		c55.1,44.1,107.5,87.8,142.9,148.1C142.5,234.2,141.7,229.5,140.2,224.9z"/>
	<path d="M524.1,123.6l-72.5,42.8c-9.8,5.8-19.6,11.6-29.4,17.3c-5.6,4.3-11.2,8.6-16.9,13c-5,3.5-10,7-15,10.5
		c-5.8,4.2-11.7,8.4-17.5,12.6c-31.5,26.5-63,53-94.5,79.5c-5.3,5.7-10.7,11.4-16,17.2c-3.9,4.2-7.8,8.4-11.7,12.6
		c-4.2,5-8.4,10-12.7,15c-4.6,5.6-9.2,11.2-13.7,16.8c-5.5,7.3-11.1,14.6-18,23.7c-21-34.1-41.3-67-61.7-99.9
		c-11.4-17.6-22.8-35.2-34.3-52.8c0.9-0.9,1.8-1.8,2.7-2.7c10.7,9.3,21.5,18.7,32.2,28c9.9,8.1,19.7,16.3,29.6,24.4
		c9.9,7.2,19.8,14.4,29.7,21.6c4.1-2.3,8.1-4.7,12.2-7c5.6-4.3,11.2-8.5,16.9-12.8c5.7-4.3,11.4-8.6,17.1-12.9
		c32.7-27.9,69.2-50.1,107.2-70c6.4-3.5,12.8-7.1,19.2-10.6c6.4-3.5,12.8-6.9,19.2-10.4c5.6-3.1,11.2-6.2,16.8-9.2
		c9.9-4.9,19.9-9.7,29.8-14.6c25.7-13.9,52.3-25.4,79.9-34.6C523.3,121.9,523.7,122.8,524.1,123.6z"/>
</g>
</svg>
