<?xml version="1.0" encoding="utf-8"?>
<!-- Generator: Adobe Illustrator 24.0.3, SVG Export Plug-In . SVG Version: 6.00 Build 0)  -->
<svg version="1.1" id="Layer_1" xmlns:serif="http://www.serif.com/"
	 xmlns="http://www.w3.org/2000/svg" xmlns:xlink="http://www.w3.org/1999/xlink" x="0px" y="0px" viewBox="0 0 1152 438.9"
	 style="enable-background:new 0 0 1152 438.9;" xml:space="preserve">
<style type="text/css">
	.st0{fill:none;}
	.st1{clip-path:url(#SVGID_2_);}
	.st2{fill-rule:evenodd;clip-rule:evenodd;fill:url(#SVGID_3_);}
	.st3{fill-rule:evenodd;clip-rule:evenodd;fill:#ABAD74;}
	.st4{fill-rule:evenodd;clip-rule:evenodd;fill:#E3F1EE;}
	.st5{fill-rule:evenodd;clip-rule:evenodd;fill:#858585;fill-opacity:0.62;}
	.st6{fill:none;stroke:#000000;stroke-width:3;stroke-linecap:square;stroke-miterlimit:10;}
	.st7{fill-rule:evenodd;clip-rule:evenodd;fill:#986969;}
	.st8{fill-rule:evenodd;clip-rule:evenodd;fill:#9C8C8C;}
	.st9{fill-rule:evenodd;clip-rule:evenodd;fill:#616161;}
	.st10{fill-rule:evenodd;clip-rule:evenodd;fill:#9AC4C9;fill-opacity:0.52;}
	.st11{fill:none;stroke:#000000;stroke-width:3;stroke-linecap:round;stroke-linejoin:round;stroke-miterlimit:10;}
	
		.st12{fill-rule:evenodd;clip-rule:evenodd;fill:#C478B9;stroke:#000000;stroke-width:3;stroke-linecap:round;stroke-linejoin:round;stroke-miterlimit:10;}
	
		.st13{fill-rule:evenodd;clip-rule:evenodd;fill:#9D4E91;stroke:#000000;stroke-width:3;stroke-linecap:round;stroke-linejoin:round;stroke-miterlimit:10;}
	
		.st14{fill-rule:evenodd;clip-rule:evenodd;fill:#B7B7B7;stroke:#000000;stroke-width:3;stroke-linecap:round;stroke-linejoin:round;stroke-miterlimit:10;}
	.st15{fill-rule:evenodd;clip-rule:evenodd;fill:#8EBBB8;fill-opacity:0.54;}
	.st16{fill-rule:evenodd;clip-rule:evenodd;fill:#6D2D2D;}
	.st17{fill-rule:evenodd;clip-rule:evenodd;fill:#A59393;}
	.st18{fill-rule:evenodd;clip-rule:evenodd;fill:#E8C1C1;}
	.st19{fill-rule:evenodd;clip-rule:evenodd;fill:#8C7C7C;}
	.st20{fill-rule:evenodd;clip-rule:evenodd;fill:#BB9F9F;}
	.st21{fill-rule:evenodd;clip-rule:evenodd;fill:#A64949;}
	.st22{fill-rule:evenodd;clip-rule:evenodd;fill:#BF9898;}
	.st23{fill-rule:evenodd;clip-rule:evenodd;fill:#E4B6B6;}
	.st24{fill-rule:evenodd;clip-rule:evenodd;fill:#D9C3C3;}
	.st25{fill-rule:evenodd;clip-rule:evenodd;fill:#776B6B;}
	
		.st26{fill-rule:evenodd;clip-rule:evenodd;stroke:#000000;stroke-width:3;stroke-linecap:round;stroke-linejoin:round;stroke-miterlimit:10;}
	
		.st27{fill-rule:evenodd;clip-rule:evenodd;fill:#C87FBC;stroke:#000000;stroke-width:3;stroke-linecap:round;stroke-linejoin:round;stroke-miterlimit:10;}
	
		.st28{fill-rule:evenodd;clip-rule:evenodd;fill:#419DC1;stroke:#000000;stroke-width:3;stroke-linecap:round;stroke-linejoin:round;stroke-miterlimit:10;}
	
		.st29{fill-rule:evenodd;clip-rule:evenodd;fill:#F4C535;stroke:#000000;stroke-width:3;stroke-linecap:round;stroke-linejoin:round;stroke-miterlimit:10;}
	
		.st30{fill-rule:evenodd;clip-rule:evenodd;fill:#F5E99D;stroke:#000000;stroke-width:3;stroke-linecap:round;stroke-linejoin:round;stroke-miterlimit:10;}
	
		.st31{fill-rule:evenodd;clip-rule:evenodd;fill:#CD0069;stroke:#000000;stroke-width:3;stroke-linecap:round;stroke-linejoin:round;stroke-miterlimit:10;}
	
		.st32{fill-rule:evenodd;clip-rule:evenodd;fill:#490E9C;stroke:#000000;stroke-width:3;stroke-linecap:round;stroke-linejoin:round;stroke-miterlimit:10;}
	
		.st33{fill-rule:evenodd;clip-rule:evenodd;fill:#3FC175;stroke:#000000;stroke-width:3;stroke-linecap:round;stroke-linejoin:round;stroke-miterlimit:10;}
	.st34{fill-rule:evenodd;clip-rule:evenodd;fill:#BCBCBC;fill-opacity:0.76;}
	
		.st35{fill-rule:evenodd;clip-rule:evenodd;fill:#FDF226;stroke:#000000;stroke-width:1.8;stroke-linecap:round;stroke-linejoin:round;stroke-miterlimit:10;}
	
		.st36{fill-rule:evenodd;clip-rule:evenodd;fill:#FDF226;stroke:#000000;stroke-width:2.1;stroke-linecap:round;stroke-linejoin:round;stroke-miterlimit:10;}
	
		.st37{fill-rule:evenodd;clip-rule:evenodd;fill:#C92124;stroke:#000000;stroke-width:3;stroke-linecap:round;stroke-linejoin:round;stroke-miterlimit:10;}
	
		.st38{fill-rule:evenodd;clip-rule:evenodd;fill:#D0A3A4;stroke:#000000;stroke-width:3;stroke-linecap:round;stroke-linejoin:round;stroke-miterlimit:10;}
	
		.st39{fill-rule:evenodd;clip-rule:evenodd;fill:#ECE0BE;stroke:#000000;stroke-width:3;stroke-linecap:round;stroke-linejoin:round;stroke-miterlimit:10;}
	
		.st40{fill-rule:evenodd;clip-rule:evenodd;fill:#B22FD0;stroke:#000000;stroke-width:3;stroke-linecap:round;stroke-linejoin:round;stroke-miterlimit:10;}
	
		.st41{fill-rule:evenodd;clip-rule:evenodd;fill:#50D02F;stroke:#000000;stroke-width:3;stroke-linecap:round;stroke-linejoin:round;stroke-miterlimit:10;}
	
		.st42{fill-rule:evenodd;clip-rule:evenodd;fill:#E8A44F;stroke:#000000;stroke-width:3;stroke-linecap:round;stroke-linejoin:round;stroke-miterlimit:10;}
	
		.st43{fill-rule:evenodd;clip-rule:evenodd;fill:#D5B991;stroke:#000000;stroke-width:3;stroke-linecap:round;stroke-linejoin:round;stroke-miterlimit:10;}
	
		.st44{fill-rule:evenodd;clip-rule:evenodd;fill:#CC8282;stroke:#000000;stroke-width:3;stroke-linecap:round;stroke-linejoin:round;stroke-miterlimit:10;}
	
		.st45{fill-rule:evenodd;clip-rule:evenodd;fill:#DFA3A3;stroke:#000000;stroke-width:3;stroke-linecap:round;stroke-linejoin:round;stroke-miterlimit:10;}
	
		.st46{fill-rule:evenodd;clip-rule:evenodd;fill:#736060;stroke:#000000;stroke-width:3;stroke-linecap:round;stroke-linejoin:round;stroke-miterlimit:10;}
	.st47{fill-rule:evenodd;clip-rule:evenodd;fill:#87D0BF;fill-opacity:0.5;}
	.st48{fill:none;stroke:#FFFFFF;stroke-width:3;stroke-linecap:round;stroke-linejoin:round;stroke-miterlimit:10;}
	
		.st49{fill-rule:evenodd;clip-rule:evenodd;fill:#880202;stroke:#000000;stroke-width:3;stroke-linecap:round;stroke-linejoin:round;stroke-miterlimit:10;}
	
		.st50{fill-rule:evenodd;clip-rule:evenodd;fill:#00D200;stroke:#000000;stroke-width:3;stroke-linecap:round;stroke-linejoin:round;stroke-miterlimit:10;}
	
		.st51{fill-rule:evenodd;clip-rule:evenodd;fill:#FFFFFF;stroke:#000000;stroke-width:3;stroke-linecap:round;stroke-linejoin:round;stroke-miterlimit:10;}
	
		.st52{fill-rule:evenodd;clip-rule:evenodd;fill:#FCDE47;stroke:#000000;stroke-width:3;stroke-linecap:round;stroke-linejoin:round;stroke-miterlimit:10;}
	
		.st53{fill-rule:evenodd;clip-rule:evenodd;fill:#FF3333;stroke:#000000;stroke-width:3;stroke-linecap:round;stroke-linejoin:round;stroke-miterlimit:10;}
	
		.st54{fill-rule:evenodd;clip-rule:evenodd;fill:#FDF226;stroke:#000000;stroke-width:1.5;stroke-linecap:round;stroke-linejoin:round;stroke-miterlimit:10;}
	
		.st55{fill-rule:evenodd;clip-rule:evenodd;fill:#84FFB7;stroke:#000000;stroke-width:1.8;stroke-linecap:round;stroke-linejoin:round;stroke-miterlimit:10;}
	.st56{fill-rule:evenodd;clip-rule:evenodd;}
	
		.st57{fill-rule:evenodd;clip-rule:evenodd;fill:#84FFB7;stroke:#000000;stroke-width:3;stroke-linecap:round;stroke-linejoin:round;stroke-miterlimit:10;}
	.st58{clip-path:url(#SVGID_5_);}
	.st59{clip-path:url(#SVGID_7_);}
	.st60{fill-rule:evenodd;clip-rule:evenodd;fill-opacity:0;}
</style>
<g>
	<rect id="Joint-Announcement" serif:id="Joint Announcement" class="st0" width="1152" height="439.8">
	</rect>
	<g>
		<defs>
			<rect id="SVGID_1_" width="1152" height="439.8"/>
		</defs>
		<clipPath id="SVGID_2_">
			<use xlink:href="#SVGID_1_"  style="overflow:visible;"/>
		</clipPath>
		<g class="st1">
			<g>
				
					<radialGradient id="SVGID_3_" cx="0" cy="543.9" r="1" gradientTransform="matrix(510.816 -143.2734 -144.969 -504.8424 79399.8125 274793.7188)" gradientUnits="userSpaceOnUse">
					<stop  offset="0" style="stop-color:#FFFFFF"/>
					<stop  offset="0.58" style="stop-color:#D8D8D8"/>
					<stop  offset="0.8" style="stop-color:#858585"/>
					<stop  offset="1" style="stop-color:#343434"/>
				</radialGradient>
				<path class="st2" d="M-223.4-56.3l1455-44.8l-1.1,561l-1399.7,85.3L-223.4-56.3L-223.4-56.3z"/>
				<path id="Floor" class="st3" d="M416.6,311.1h302l73.1,48.1l-114.1,0.5l-2.2-2.4l-99.2-0.2v2.8l-132.7-0.3l4.8-4.9l-98-0.9
					L416.6,311.1L416.6,311.1z"/>
				<path class="st4" d="M719.7,107.4l-302-0.1L719.7,107.4l58.3-40.2l0,68.3l27.4-9.7l0,32.8l-9.4,2.9l-0.3,55.2l9.7,0.5l0.1,31
					l-20.3-3.2l-0.1,33.5l-32.6-8.6l-25.2,0l-0.6,46.2l-6.9-4.8H417.1l-43.7,28.8l-0.8-70.6l-9.2,2.3l-0.2-57.9l22.6-0.7l0.6-56.9
					l-32.1-10.7l0.7-8.2l7.9,2.2l0.7-68.1l-3.7-2.8l59.1-0.9l-8.7-9.4l191.1-0.4l-2.1,13.2l91.2,0l6.8-8.4l85.8,0.6l-5.2,3.7"/>
				<path class="st5" d="M362.5,71.3l0.1,68.2l-8.2-2.8l-0.2,63.1l8.4,0.9v71.1l9.8-2.8l0.3,71.1l-6.8,3.8l-0.2,10.6l82.1-0.2
					l-5,5.5l133.6-0.2l-0.1-2.8l98.9,0l2,2.9l72.3-1l0.1-45.3l-5.9-2.6l0.4-37.1l21.9-0.5l18,4.6l0.3-33.6l20.4,3.2l0-121.8
					l-27.5,9.8l-0.2-68.3l5.2-3.9L696,62.3l-6.1,8.9h-91.7l2.4-13.3l-191.2,0.4l9,8.9l-60.1,1.1L227.3-20l1043.9-27.4l-2.4,544.6
					l-1411.2,1.2l21.2-538.8l344.6,17.7L362.5,71.3L362.5,71.3z"/>
				<g id="Room-Lines" serif:id="Room Lines">
					<rect x="416.7" y="107.2" class="st6" width="302.5" height="204.4"/>
					<path class="st6" d="M719.3,107L888-9.3"/>
					<path class="st6" d="M719.3,311.5l176.4,121.4"/>
					<path class="st6" d="M416.6,107L217.3-25.3"/>
					<path class="st6" d="M416.6,311.1L69.7,539.9"/>
				</g>
				<g>
					<path class="st7" d="M307.7,296.4l58-17.6v97.2l-58,42.4L307.7,296.4L307.7,296.4z"/>
					<path class="st8" d="M264.1,296.4l69.3-17.6h32.3l-58,17.6H264.1L264.1,296.4z"/>
					<rect x="264.1" y="296.4" class="st9" width="43.6" height="122"/>
					<path class="st10" d="M264.1,296.4l37.3-10.1l18.5,1.4l25.1-7.6l0.2-1.5l20.8-0.1l-0.2,98.2l-58.2,41.7h-43.6L264.1,296.4
						L264.1,296.4z"/>
					<g id="Left-Block" serif:id="Left Block">
						<path class="st11" d="M308.2,296.5l57.5-17.6v97.9l-58,41.7L308.2,296.5L308.2,296.5z"/>
						<path class="st11" d="M307.7,296.4h-43.6v122h43.6"/>
						<path class="st11" d="M264.1,296.4l69-17.6h32.7"/>
					</g>
				</g>
				<g>
					<path class="st12" d="M726.1,269.7l42.5,13l0.2,90.1l-42.7-31.6V269.7z"/>
					<rect x="768.8" y="282.7" class="st13" width="32.4" height="90.2"/>
					<path class="st14" d="M726.1,269.7h25.1l48.7,13h-31.1L726.1,269.7L726.1,269.7z"/>
					<path class="st15" d="M766.5,273.8l-22.5,0.2v36.3l5.3,3.1l-0.1,44.9l19.5,14.5l32.8,0.1l0-90.3L766.5,273.8L766.5,273.8z"/>
					<g id="RightBlock">
						<path class="st11" d="M768.6,282.7l-42.5-13v72.3l42.9,30.8L768.6,282.7z"/>
						<path class="st11" d="M769,282.7h32.2v90.2H769"/>
						<path class="st11" d="M801.2,282.7l-51-13h-24.1"/>
					</g>
				</g>
				<g>
					<path class="st16" d="M423.2,319l94.9-0.2l0.1,23.9h-95V319z"/>
					<path class="st17" d="M423.2,319l20.4-15.1h83.5l-8.9,14.9L423.2,319L423.2,319z"/>
					<path class="st18" d="M527.1,303.9v16.4l-8.9,20.9v-22.5L527.1,303.9z"/>
					<g id="Center-Block-" serif:id="Center Block?">
						<path class="st11" d="M423.5,318.7l20-14.8h83.6l-8.7,14.8H423.5z"/>
						<path class="st11" d="M423.4,318.7l95,0v24h-95.2L423.4,318.7L423.4,318.7z"/>
						<path class="st11" d="M518.4,342.7l8.7-22.9v-15.9"/>
					</g>
				</g>
				<g>
					<path class="st19" d="M616.3,252.6l95,0v10.3H616L616.3,252.6L616.3,252.6z"/>
					<path class="st20" d="M610.7,247l5.5,5.6L616,263l-5.3-5.3V247z"/>
					<path class="st21" d="M710.2,252.6l-18.1-5.6h-80.6l4.5,5.6H710.2z"/>
					<path class="st22" d="M703.9,263v58.1h7.3v-58.2L703.9,263L703.9,263z"/>
					<path class="st23" d="M699.9,262.9l4,0.1v58.1l-3.9-4L699.9,262.9z"/>
					<rect x="616.3" y="263" class="st24" width="7.4" height="58.1"/>
					<path class="st25" d="M612.6,260l0,52.2l3.5,8.4l0.2-57.7L612.6,260L612.6,260z"/>
					<g id="Table">
						<path class="st11" d="M616.3,252.6l95,0V263H616L616.3,252.6L616.3,252.6z"/>
						<rect x="703.8" y="263" class="st11" width="7.5" height="58.1"/>
						<rect x="616" y="263" class="st11" width="7.5" height="58.1"/>
						<path class="st11" d="M616,321.1l-3.5-8.5v-10.7l0-42.2"/>
						<path class="st11" d="M703.7,321.1l-3.8-3.7V263"/>
						<path class="st11" d="M616,252.6l-5.3-5.6h81.6l18.9,5.6"/>
						<path class="st11" d="M616,263l-5.3-5.2V247"/>
					</g>
				</g>
				<g id="Dream">
					<rect x="456" y="119.6" class="st26" width="68" height="68"/>
					<rect id="Painting" x="461.8" y="125.3" class="st27" width="56.7" height="56.7"/>
					<rect x="461.8" y="172.1" class="st28" width="56.7" height="9.9"/>
					<circle class="st29" cx="479.4" cy="143.7" r="16.5"/>
					<path class="st30" d="M472.2,166.9l-1.6-3.9l30.3-12.8l-4-1.6l1.8-4.3c4.6-0.1,9.6,0.8,15.1,2.8c-1.5,4.8-4.4,9-8.5,12.8
						l-4.3-1.8l1.6-4L472.2,166.9L472.2,166.9z"/>
				</g>
				<g id="King">
					<path class="st26" d="M385.8,155.4l-69.4-22.1v82.1l69.4-1.5V155.4z"/>
					<path class="st31" d="M381.6,157.8l-60-18.3v69.8h60.1L381.6,157.8z"/>
					<path class="st32" d="M381.6,195.6l-60-4.9v18.5h60.1L381.6,195.6z"/>
					<ellipse class="st33" cx="338.2" cy="166.3" rx="4.3" ry="11.5"/>
					<ellipse class="st33" cx="354.3" cy="181" rx="3.6" ry="9.7"/>
					<ellipse class="st33" cx="371.6" cy="167.3" rx="2.2" ry="7.1"/>
					<path class="st34" d="M362.5,208.3v-8l-8.1-0.3l-0.4-49.7l-31.5-9.7l0.1,67.7L362.5,208.3L362.5,208.3z"/>
				</g>
				<g id="King1" serif:id="King">
					<path class="st26" d="M307.4,149.7L238,133.3v82.1l69.4-1.5V149.7z"/>
					<path class="st31" d="M303.2,152.7l-60-13.2v69.8h60.1C303.3,209.3,303.2,152.7,303.2,152.7z"/>
					<path class="st32" d="M303.2,195.6l-60-4.9v18.5h60.1L303.2,195.6z"/>
					<ellipse class="st33" cx="259.8" cy="166.3" rx="4.3" ry="11.5"/>
					<ellipse class="st33" cx="275.9" cy="181" rx="3.6" ry="9.7"/>
					<ellipse class="st33" cx="293.2" cy="167.3" rx="2.2" ry="7.1"/>
					<path class="st34" d="M302.4,208.3l-0.1-55l-58.1-12.8l0.1,67.7L302.4,208.3z"/>
				</g>
				<path class="st35" d="M490,306.1c15.4,0,28,2.2,28,5s-12.5,5-28,5s-28-2.2-28-5S474.5,306.1,490,306.1L490,306.1z M490,308.4
					c8.5,0,15.3,1.2,15.3,2.7s-6.9,2.7-15.3,2.7c-8.5,0-15.3-1.2-15.3-2.7S481.5,308.4,490,308.4z"/>
				<path class="st36" d="M487,224.7h6.9v12.8h6.4l-9.9,9.9l-9.9-9.9h6.4L487,224.7L487,224.7z"/>
				<g id="Crimson">
					<path class="st26" d="M411.2,152.3l-17.3-6v56.2l16.9,0.1L411.2,152.3L411.2,152.3z"/>
					<path class="st37" d="M410.3,155.8l-14.4-5.2v48.6l14,1L410.3,155.8z"/>
					<path class="st38" d="M410.3,155.5l-14.3-4.9v17.7l13.9,3.5L410.3,155.5z"/>
				</g>
				<g id="Requiem">
					<rect x="510.2" y="114.3" class="st26" width="30.3" height="52.6"/>
					<rect id="Painting1" x="512.8" y="118.7" serif:id="Painting" class="st39" width="25.3" height="43.8">
					</rect>
					<rect x="512.8" y="154.9" class="st40" width="25.3" height="7.6"/>
					<rect x="512.8" y="140.6" class="st41" width="14.7" height="7.6"/>
					<rect x="512.8" y="126.3" class="st42" width="8.8" height="7.6"/>
				</g>
				<g id="Painting2" serif:id="Painting">
					<rect x="566.9" y="156" class="st26" width="142.2" height="53.2"/>
					<rect id="Painting3" x="572.6" y="160.4" serif:id="Painting" class="st43" width="131.4" height="44.4">
					</rect>
					<rect x="572.6" y="197.1" class="st44" width="131.4" height="7.7"/>
				</g>
				<g id="right-painting" serif:id="right painting">
					<path class="st26" d="M793.5,160.2l0,58.2l97.2,4v-83L793.5,160.2z"/>
					<path class="st45" d="M797.3,163.1l0,51.2l88.8,3.7v-74L797.3,163.1L797.3,163.1z"/>
					<path class="st46" d="M886.1,218l-88.9-2.4V203l1.9-0.2c5.7-3.5,22.1-10.8,36-6c24.4,8.4,40.5,5.2,51-3.8L886.1,218L886.1,218z
						"/>
					<path class="st47" d="M804.7,162.3l0,52.7l80.2,1.7l0.1-71.3L804.7,162.3z"/>
				</g>
				<g id="Digital-Lines" serif:id="Digital Lines">
					<path class="st11" d="M819.1,304.5l254.7,97.6"/>
					<path class="st11" d="M784.4,244.8l163.7,27.1"/>
					<path class="st11" d="M777.2,135.8l461.5-164.5"/>
					<path class="st11" d="M808.6,173.9l77.5-11.6"/>
					<path class="st11" d="M904.3,209.4h351"/>
					<path class="st11" d="M720.9,40.7l32.8-36.8"/>
					<path class="st11" d="M626.2,58.1l28.4-77.7"/>
					<path class="st11" d="M440,58.2L402.6,15l-29.9-34.6"/>
					<path class="st11" d="M537.2,54l-16.9-78.1"/>
					<path class="st11" d="M676.8,383.8l45,74.1"/>
					<path class="st11" d="M815,86.6l88.6-44.5"/>
					<path class="st11" d="M835.3,294.3l99.3,31.9"/>
					<path class="st11" d="M235.5,204.3L-7.9,202"/>
					<path class="st11" d="M491.1,47.4l-9.2-18.7"/>
					<path class="st11" d="M652.1,64.4l25.7-45.8"/>
					<path class="st11" d="M450.6,371.4l-45.3,61.1"/>
					<path class="st11" d="M744.6,297.6l16.4,8.3"/>
					<path class="st11" d="M750.3,337.8l16.7,11.9"/>
					<path class="st11" d="M345,267l-14.1,3.6"/>
					<path class="st11" d="M301.3,257.4L-7.9,312.5"/>
					<path class="st11" d="M361.9,246.6l-15.9,2.8"/>
					<path class="st11" d="M262.8,353.7L16.8,469"/>
					<path class="st11" d="M264,304.1l-16.4,5.1"/>
					<path class="st11" d="M353.9,292.9l-45.3,17.4"/>
					<path class="st11" d="M353.9,356.5L322.2,378L353.9,356.5z"/>
					<path class="st11" d="M330.8,319.2l-22.2,10.1"/>
					<path class="st11" d="M437.7,365l10.2-10.4"/>
					<path class="st11" d="M744.1,274h23.6"/>
					<path class="st11" d="M682.4,367.4l-6.9-9.8"/>
					<path class="st11" d="M271.7,333.3h26.9"/>
					<path class="st11" d="M291.4,310.1h16.3"/>
					<path class="st11" d="M264.1,300.9h21.8"/>
					<path class="st11" d="M285.1,395.8h22.5"/>
					<path class="st11" d="M264.1,371.9h28.7"/>
					<path class="st11" d="M271.7,302.5v48.8"/>
					<path class="st11" d="M285.1,333.3v45.5"/>
					<path class="st11" d="M300.5,371.9v36.7"/>
					<path class="st11" d="M271.7,390.3v28.2"/>
					<path class="st11" d="M170.8-24.6v272.7"/>
					<path class="st11" d="M53-24.6v272.7"/>
					<path class="st11" d="M20.5,167.9v272.7"/>
					<path class="st11" d="M196.8,222.6v209.2"/>
					<path class="st11" d="M247.2,41.1v217.6"/>
					<path class="st11" d="M306.7,77.1V218"/>
					<path class="st11" d="M322.1,316.8v67"/>
					<path class="st11" d="M354.6,283v73.1"/>
					<path class="st11" d="M262.8,134.5L-162.7,28.4"/>
					<path class="st11" d="M256.7,234l-119.9,8.2"/>
					<path class="st11" d="M247.2,300.6l-378,108.9"/>
					<path class="st11" d="M354.6,321.5l-19.9,11.8"/>
					<path class="st11" d="M104.4,5.7l257.5,111.8"/>
					<path class="st11" d="M352.5,189.7l-136.3-12.8"/>
					<path class="st11" d="M295.3,267.5l-36.6,7.9"/>
					<path class="st11" d="M354.6,302.8l-18.3,7.4"/>
					<path class="st11" d="M362.5,71.3c0,0,0.1,70.2,0.1,68.2"/>
					<path class="st11" d="M358,69.2c0,0,0.1,70.2,0.1,68.2"/>
					<path class="st11" d="M348.4,162.9c0,0,0.1,70.2,0.1,68.2"/>
					<path class="st11" d="M357.9,209.4c0,0,0.1,70.2,0.1,68.2"/>
					<path class="st11" d="M369.1,273.8c0,0,0.1,70.2,0.1,68.2"/>
					<path class="st11" d="M354.2,137.8v71.6"/>
					<path class="st11" d="M362.5,200.3v71.6"/>
					<path class="st11" d="M336.7,209.4v37.3"/>
					<path class="st11" d="M372.1,255.8v83.9"/>
					<path class="st11" d="M359,68.1h85.9"/>
					<path class="st11" d="M409,58.3l217.2-0.2"/>
					<path class="st11" d="M318.8,23.9l447.7-0.5"/>
					<path class="st11" d="M609.9,41.8l202.6-0.2"/>
					<path class="st11" d="M632.7,4l234.9-0.3"/>
					<path class="st11" d="M328.6,48.2l215.2-0.2"/>
					<path class="st11" d="M591.6,71.3h105"/>
					<path class="st11" d="M677.2,62.7h105"/>
					<path class="st11" d="M777.2,67.1V136"/>
					<path class="st11" d="M781,65.5v68.9"/>
					<path class="st11" d="M1037.1,115.4l-122.6,24.7"/>
					<path class="st11" d="M818,258.6l-33.7-6.7"/>
					<path class="st11" d="M749.5,313.6l-4.8-2.8"/>
					<path class="st11" d="M576.2,359.5l-0.1-2.3"/>
					<path class="st11" d="M362.6,272.1l9.5-2.9"/>
					<path class="st11" d="M354.2,199.8l8.4,0.4"/>
					<path class="st11" d="M354.2,137.4l12.5,4.1"/>
					<path class="st11" d="M409,58.3l10.2,9.5"/>
					<path class="st11" d="M808.6,124.6v123.2"/>
					<path class="st11" d="M804.6,124.6v123.2"/>
					<path class="st11" d="M784.4,245.1v33.6"/>
					<path class="st11" d="M788.8,246.3v33.6"/>
					<path class="st11" d="M744.1,275.8v41.7"/>
					<path class="st11" d="M747.4,276.4V312"/>
					<path class="st11" d="M778.9,294.3V336"/>
					<path class="st11" d="M795.9,282.7v88.8"/>
					<path class="st11" d="M790.3,330.3V372"/>
					<path class="st11" d="M777.6,293.9h21.2"/>
					<path class="st11" d="M770.2,317.3h21.2"/>
					<path class="st11" d="M779.7,347.4h21.2"/>
					<path class="st11" d="M769.2,367.9h21.2"/>
					<path class="st11" d="M770.2,336.6h20.1"/>
					<path class="st11" d="M780,305.4h21.2"/>
					<path class="st11" d="M860.7,221v110.2"/>
					<path class="st11" d="M974.1,252.6v182.6"/>
					<path class="st11" d="M934.6-32.6V326"/>
					<path class="st11" d="M1132.7,115.4v361.3"/>
					<path class="st11" d="M1074.2,72v149"/>
					<path class="st11" d="M872.3,40.8V120"/>
					<path class="st11" d="M914.5,120v124.3"/>
					<path class="st11" d="M841.7,111.7v124.3"/>
					<path class="st11" d="M876.8,310.3v107.8"/>
					<path class="st11" d="M749.5,313.9v43.5"/>
					<path class="st11" d="M677.2,359.8h72"/>
					<path class="st11" d="M675.4,363.9h72"/>
					<path class="st11" d="M637.2,368.3h64.5"/>
					<path class="st11" d="M614.2,396h168.4"/>
					<path class="st11" d="M576.2,357.2h105"/>
					<path class="st11" d="M528.8,367.4h77.7"/>
					<path class="st11" d="M394.4,410.1h135.4"/>
					<path class="st11" d="M442.8,360.1h139.9"/>
					<path class="st11" d="M451.8,363.9h139.9"/>
					<path class="st11" d="M403.6,371h78.6"/>
					<path class="st11" d="M366.5,354.6h81.4"/>
					<path class="st11" d="M366,357.7h78.3"/>
					<path class="st11" d="M354.6,384.9h63.7"/>
					<path class="st11" d="M346.3,390.4V351"/>
					<path class="st11" d="M331.2,341.4v-28.1"/>
					<path class="st11" d="M331.8,400.2v-28.1"/>
					<path class="st11" d="M313.7,414.3v-28.1"/>
					<path class="st11" d="M495.6,410.1l10.5-28"/>
					<path class="st11" d="M619.4,416.5l-9-34.4"/>
					<path class="st11" d="M735.8,394.9l-17.5-19.7"/>
					<path class="st11" d="M403.8,382.1l9.8-10.1"/>
					<path class="st11" d="M454.3,394.4l21.5-34.1"/>
					<path class="st11" d="M280.1,456.7l95.8-81.5"/>
					<path class="st11" d="M833.8,413.7l-40.7-31.6"/>
					<path class="st11" d="M600.7,58.3l-2.4,12.2"/>
					<path class="st11" d="M696.4,63.1l-6.4,7.4"/>
				</g>
				<ellipse class="st11" cx="266.6" cy="135.7" rx="3" ry="8.8"/>
				<ellipse class="st11" cx="306.7" cy="227.3" rx="3" ry="8.8"/>
				<ellipse class="st11" cx="260.2" cy="233.4" rx="3.4" ry="7.9"/>
				<ellipse class="st11" cx="244" cy="310.6" rx="3" ry="6.5"/>
				<ellipse class="st11" cx="286.9" cy="310.1" rx="3.6" ry="4"/>
				<ellipse class="st11" cx="271.5" cy="355.9" rx="3.6" ry="4"/>
				<ellipse class="st11" cx="284.9" cy="384.6" rx="4.7" ry="4.8"/>
				<ellipse class="st11" cx="346.3" cy="344.3" rx="2.5" ry="6"/>
				<ellipse class="st11" cx="322.6" cy="390.5" rx="2.5" ry="6"/>
				<ellipse class="st11" cx="331.2" cy="348.5" rx="2.5" ry="6"/>
				<ellipse class="st11" cx="328.5" cy="271.6" rx="1.8" ry="4.3"/>
				<ellipse class="st11" cx="247" cy="33.1" rx="3.6" ry="8"/>
				<ellipse class="st11" cx="811" cy="88.7" rx="3.6" ry="8"/>
				<ellipse class="st11" cx="914.4" cy="114.7" rx="2.5" ry="5.3"/>
				<ellipse class="st11" cx="914.5" cy="251.7" rx="4" ry="7.4"/>
				<ellipse class="st11" cx="841.3" cy="242.6" rx="3.2" ry="5.9"/>
				<ellipse class="st11" cx="815.4" cy="302.8" rx="3.2" ry="5.9"/>
				<ellipse class="st11" cx="831" cy="293.1" rx="3.2" ry="5.9"/>
				<ellipse class="st11" cx="790.3" cy="326.9" rx="3.2" ry="3.6"/>
				<ellipse class="st11" cx="775.1" cy="347.1" rx="3.7" ry="4.2"/>
				<ellipse class="st11" cx="762.8" cy="307.2" rx="1.9" ry="5.4"/>
				<ellipse class="st11" cx="837.9" cy="417.5" rx="7.7" ry="4.3"/>
				<ellipse class="st11" cx="620.4" cy="420.6" rx="7.7" ry="4.3"/>
				<ellipse class="st11" cx="507.1" cy="378.5" rx="6.6" ry="3.2"/>
				<ellipse class="st11" cx="311.4" cy="24.2" rx="6.6" ry="3.2"/>
				<ellipse class="st11" cx="480.4" cy="24.2" rx="6.6" ry="3.2"/>
				<ellipse class="st11" cx="551.5" cy="47.3" rx="6.6" ry="3.2"/>
				<ellipse class="st11" cx="651.4" cy="66.9" rx="5.3" ry="2.4"/>
				<ellipse class="st11" cx="680.3" cy="14.8" rx="7.6" ry="3.3"/>
				<ellipse class="st11" cx="773.3" cy="23.5" rx="6.6" ry="2.5"/>
				<ellipse class="st11" cx="387.6" cy="410.1" rx="6.6" ry="3.2"/>
				<ellipse class="st11" cx="396.7" cy="370" rx="6.6" ry="3.2"/>
				<ellipse class="st11" cx="629.9" cy="368.4" rx="6.6" ry="3.2"/>
				<ellipse class="st11" cx="716.1" cy="371.6" rx="6.6" ry="3.2"/>
				<ellipse class="st11" cx="789.2" cy="394.9" rx="6.6" ry="3.2"/>
				<path class="st48" d="M816.1,135.6l410.2-123.4"/>
				<path class="st48" d="M791.1,271.7l440.5,124.6"/>
				<path class="st48" d="M345.6,175.7l-432.9-64.8"/>
				<path class="st48" d="M256.9,339.7L-28.2,458"/>
				<path class="st48" d="M691.7,363.5l87.6,111.6"/>
				<path class="st48" d="M449.6,363.5L375.3,458"/>
				<path class="st48" d="M718.8,59.7l97.2-98.3"/>
				<path class="st48" d="M413.2,55.4l-101.5-94"/>
				<path class="st48" d="M510.1,55.4l-37.1-94"/>
				<path class="st48" d="M622.1,55.4l31.3-94"/>
				<g>
					<path class="st49" d="M479.6,279.3c6.9-1.8,13.9-1.8,20.8,0l-8.1,7.9L479.6,279.3z"/>
					<path class="st50" d="M504.1,273.6c0,0-4.4-1-10.7,1.7c-1.4,0.6-2,2.2-1.4,3.6c0.6,1.4,2.2,2,3.6,1.4
						C501.9,277.6,504.1,273.6,504.1,273.6z"/>
					<path class="st50" d="M494.1,266.7l-4.3-0.7l-4.5,26.2l4.3,0.7L494.1,266.7z"/>
					<path class="st50" d="M476.4,269.7c0,0,1.3,4.4,6.8,8.4c1.2,0.9,2.9,0.6,3.8-0.6c0.9-1.2,0.6-2.9-0.6-3.8
						C481,269.7,476.4,269.7,476.4,269.7L476.4,269.7z"/>
					<path class="st51" d="M484,257.4c-0.3-1.9,0.7-4,2.7-4.9c1.9-0.9,4.2-0.5,5.5,1c1.5-1.2,3.8-1.4,5.6-0.1
						c1.8,1.2,2.5,3.4,1.9,5.3c1.8,0.7,3.1,2.6,2.9,4.8c-0.2,2.2-1.7,3.9-3.6,4.3c0.3,1.9-0.7,4-2.7,4.9s-4.2,0.5-5.5-1
						c-1.5,1.2-3.8,1.4-5.6,0.1c-1.8-1.2-2.5-3.4-1.9-5.3c-1.8-0.7-3.1-2.6-2.9-4.8C480.6,259.6,482.2,257.8,484,257.4z"/>
					<path class="st52" d="M490,259.4c1.7-0.8,3.8-0.1,4.7,1.6c0.8,1.7,0.1,3.8-1.6,4.7c-1.7,0.8-3.8,0.1-4.7-1.6
						C487.6,262.3,488.3,260.2,490,259.4L490,259.4z"/>
					<path class="st53" d="M479.6,279.3c6.8,4.1,13.7,3.8,20.8,0l-5.2,31.2c-3.1,1.5-6.5,1.7-10.4,0L479.6,279.3L479.6,279.3z"/>
				</g>
				<path class="st54" d="M480.1,352.5c-7.1-0.5-12.2-1.9-12.2-3.6c0-2.1,8.2-3.8,18.3-3.8c10.1,0,18.3,1.7,18.3,3.8
					c0,2-7,3.6-16.1,3.8l-83.4,41l206.2,52.6l-62.3,10.7l-169.4-63L480.1,352.5L480.1,352.5z M486.1,346.8c5.5,0,10,0.9,10,2.1
					c0,1.2-4.5,2.1-10,2.1c-5.5,0-10-0.9-10-2.1C476.1,347.7,480.6,346.8,486.1,346.8L486.1,346.8z"/>
				<path class="st55" d="M685.8,347.6c-12.8-0.5-22.5-2.5-22.5-4.9c0-2.8,12.5-5,28-5c15.4,0,28,2.2,28,5c0,2.8-12.5,5-28,5
					c-0.1,0-0.2,0-0.3,0l-6.4,24.7l22.7,52.6l-97.8,32.8l-63.7-6.3l133.7-36.9l-6.8-41L685.8,347.6L685.8,347.6z M691.3,340
					c8.5,0,15.3,1.2,15.3,2.7s-6.9,2.7-15.3,2.7c-8.5,0-15.3-1.2-15.3-2.7S682.8,340,691.3,340z"/>
				<g id="LocoBot">
					<ellipse class="st56" cx="570.8" cy="440.9" rx="44.1" ry="9.7"/>
					<path class="st56" d="M596.6,278.7h-51.5l4-9.1h43.5L596.6,278.7L596.6,278.7z"/>
					<path class="st56" d="M596.6,278.7h-51.5l4-9.1h43.5L596.6,278.7L596.6,278.7z"/>
					<rect x="545.1" y="278.7" class="st56" width="51.5" height="7.9"/>
					<rect x="545.1" y="278.7" class="st56" width="51.5" height="7.9"/>
					<path class="st56" d="M583.3,378.5h-25.1L556,420h29.6L583.3,378.5L583.3,378.5z"/>
					<rect x="549.7" y="388.6" class="st56" width="42.2" height="31.3"/>
					<rect x="549.9" y="402.2" class="st56" width="41.9" height="19.7"/>
					<path class="st56" d="M604.2,425.5v9.5h-66.7v-9.5l1.5-7.1h63.7L604.2,425.5z"/>
					<rect x="545.7" y="278.8" class="st56" width="6.4" height="154.2"/>
					<rect x="589.6" y="278.7" class="st56" width="6.4" height="154.3"/>
					<rect x="567.1" y="263" class="st56" width="7.4" height="10.3"/>
					<rect x="564.7" y="261.3" class="st56" width="12.2" height="2.8"/>
					<path class="st56" d="M564.7,246h1.6v-7.1h9.1v7.1h1.6v18.1h-1.6v-12.6h-9.1v12.6h-1.6V246z"/>
					<path class="st56" d="M584.8,232.1c0-2.3-1.9-4.2-4.2-4.2h-19.5c-2.3,0-4.2,1.9-4.2,4.2v2.9c0,2.3,1.9,4.2,4.2,4.2h19.5
						c2.3,0,4.2-1.9,4.2-4.2V232.1z"/>
					<path class="st56" d="M580.6,225.8c0-1.5-1.3-2.7-2.9-2.7H564c-1.6,0-2.9,1.2-2.9,2.7v1.9c0,1.5,1.3,2.7,2.9,2.7h13.7
						c1.6,0,2.9-1.2,2.9-2.7V225.8z"/>
					<path class="st56" d="M583.3,229h-25l3.3-4.7H580L583.3,229L583.3,229z"/>
					<path class="st56" d="M583.3,229h-25l3.3-4.7H580L583.3,229L583.3,229z M561.9,224.9l-2.5,3.5h22.7l-2.5-3.5H561.9z"/>
				</g>
				<path class="st57" d="M691.2,342.7c0,0,16.7-40.9,16.7-50.2c0-9.2-7.5-16.7-16.7-16.7s-16.7,7.5-16.7,16.7
					C674.5,301.8,691.2,342.7,691.2,342.7z M691.2,283.9c4.7,0,8.6,3.9,8.6,8.6c0,4.7-3.9,8.6-8.6,8.6s-8.6-3.9-8.6-8.6
					C682.6,287.8,686.5,283.9,691.2,283.9z"/>
				<ellipse class="st11" cx="1041.7" cy="114.7" rx="4.6" ry="8.6"/>
			</g>
			<rect x="-79.3" y="-152.4" class="st26" width="1303.2" height="150.5"/>
			<rect x="-79.3" y="440.9" class="st26" width="1303.2" height="163.2"/>
			<path class="st56" d="M1152,556.9H0v-648h1152V556.9z M3-88.1v642h1146v-642H3z"/>
			<g>
				<defs>
					<rect id="SVGID_4_" x="52.1" y="436" width="352.2" height="150.2"/>
				</defs>
				<clipPath id="SVGID_5_">
					<use xlink:href="#SVGID_4_"  style="overflow:visible;"/>
				</clipPath>
				<g class="st58">
					<g>
						<g>
							<defs>
								<rect id="SVGID_6_" x="52.1" y="436" width="352.2" height="150.2"/>
							</defs>
							<clipPath id="SVGID_7_">
								<use xlink:href="#SVGID_6_"  style="overflow:visible;"/>
							</clipPath>
							<g class="st59">
								<rect x="52.1" y="436" class="st60" width="352.2" height="150.2"/>
								<rect x="77.1" y="439.9" class="st60" width="341.1" height="78.5"/>
							</g>
						</g>
					</g>
				</g>
			</g>
		</g>
	</g>
</g>
</svg>
